<svg width="58" height="57" viewBox="0 0 58 57" fill="none" xmlns="http://www.w3.org/2000/svg">
<g clip-path="url(#clip0_2_1159)">
<g clip-path="url(#clip1_2_1159)">
<g clip-path="url(#clip2_2_1159)">
<path d="M47.66 0H10.66C5.13716 0 0.660004 4.47715 0.660004 10V47C0.660004 52.5228 5.13716 57 10.66 57H47.66C53.1828 57 57.66 52.5228 57.66 47V10C57.66 4.47715 53.1828 0 47.66 0Z" fill="#FFC500" fill-opacity="0.2"/>
<path d="M44.4515 29.4756C44.1533 30.542 43.557 31.4662 42.7736 32.0771C42.148 32.5657 41.4377 32.8212 40.739 32.8212C40.4759 32.8212 40.2187 32.7856 39.9644 32.7128C39.0407 32.4451 38.2923 31.7018 37.9123 30.673C37.5645 29.7352 37.5411 28.6318 37.8393 27.5651C38.1403 26.4987 38.7366 25.5745 39.5171 24.9636C40.3766 24.2926 41.3997 24.0607 42.3263 24.3279C43.2501 24.5956 44.0013 25.3388 44.3814 26.3676C44.7263 27.3055 44.7525 28.4089 44.4515 29.4756ZM24.9069 26.7802C26.006 26.7802 27.0555 26.1604 27.7862 25.0789C28.4498 24.0984 28.8152 22.8141 28.8152 21.462C28.8152 20.1086 28.4498 18.8243 27.7862 17.8438C27.0554 16.7627 26.006 16.1428 24.9069 16.1428C23.8048 16.1428 22.7554 16.7626 22.0246 17.8438C21.364 18.8243 20.9986 20.1086 20.9986 21.462C20.9986 22.8141 21.364 24.0984 22.0246 25.0789C22.7554 26.1604 23.8048 26.7802 24.9069 26.7802ZM34.4132 26.7802C35.5153 26.7802 36.5646 26.1604 37.2955 25.0789C37.9561 24.0984 38.3215 22.8141 38.3215 21.462C38.3215 20.1086 37.9561 18.8243 37.2955 17.8438C36.5646 16.7627 35.5152 16.1428 34.4132 16.1428C33.314 16.1428 32.2646 16.7626 31.5338 17.8438C30.8703 18.8243 30.5049 20.1086 30.5049 21.462C30.5049 22.8141 30.8703 24.0984 31.5338 25.0789C32.2646 26.1604 33.314 26.7802 34.4132 26.7802ZM21.4809 27.5658C21.1798 26.4988 20.5835 25.5746 19.8029 24.9637C18.9435 24.2927 17.9204 24.0608 16.9937 24.3279C16.0671 24.5956 15.3187 25.3389 14.9387 26.3677C14.5937 27.3055 14.5675 28.4089 14.8685 29.4756C15.1667 30.542 15.763 31.4662 16.5464 32.0771C17.172 32.5657 17.8823 32.8213 18.581 32.8213C18.8411 32.8213 19.1013 32.7857 19.3527 32.7129C20.2793 32.4452 21.0277 31.7019 21.4077 30.6731C21.7556 29.7353 21.7791 28.6319 21.4809 27.5658ZM35.3953 30.1662C33.7934 28.4604 31.7588 27.5217 29.66 27.5217C27.5612 27.5217 25.5237 28.4604 23.9276 30.1662C22.4016 31.7928 21.3376 34.0499 20.9284 36.5229C20.6682 38.1004 21.1417 39.6187 22.2321 40.688C23.3663 41.8009 24.8484 42.1388 26.2983 41.6164C27.3711 41.2284 28.5024 41.0318 29.66 41.0318C30.8176 41.0318 31.9489 41.2285 33.0217 41.6164C33.469 41.7775 33.9192 41.8571 34.3606 41.8571C35.3515 41.8571 36.3016 41.4579 37.085 40.688C38.1783 39.6187 38.6518 38.1004 38.3916 36.5229C37.9824 34.0499 36.9184 31.7928 35.3953 30.1662Z" fill="#FFC500"/>
</g>
</g>
</g>
<defs>
<clipPath id="clip0_2_1159">
<rect width="57" height="57" fill="white" transform="translate(0.660004)"/>
</clipPath>
<clipPath id="clip1_2_1159">
<rect width="57" height="57" fill="white" transform="translate(0.660004)"/>
</clipPath>
<clipPath id="clip2_2_1159">
<rect width="57" height="57" fill="white" transform="translate(0.660004)"/>
</clipPath>
</defs>
</svg>
