<svg width="1920" height="900" viewBox="0 0 1920 900" fill="none" xmlns="http://www.w3.org/2000/svg">
<g clip-path="url(#clip0_2_5)">
<g clip-path="url(#clip1_2_5)">
<mask id="mask0_2_5" style="mask-type:alpha" maskUnits="userSpaceOnUse" x="0" y="-234" width="1920" height="1134">
<path d="M1920 -233.383H0V899.95H1920V-233.383Z" fill="#D9D9D9"/>
</mask>
<g mask="url(#mask0_2_5)">
<path d="M1920 -260.05H0V893.283H1920V-260.05Z" fill="#1A759F"/>
<path d="M24.6667 793.283C124.446 793.283 205.333 712.396 205.333 612.617C205.333 512.837 124.446 431.95 24.6667 431.95C-75.1128 431.95 -156 512.837 -156 612.617C-156 712.396 -75.1128 793.283 24.6667 793.283Z" fill="#168AAD"/>
<path d="M238 933.283C337.78 933.283 418.667 852.396 418.667 752.617C418.667 652.837 337.78 571.95 238 571.95C138.221 571.95 57.3334 652.837 57.3334 752.617C57.3334 852.396 138.221 933.283 238 933.283Z" fill="#168AAD"/>
<path d="M508.667 814.617C581.2 814.617 640 755.817 640 683.283C640 610.75 581.2 551.95 508.667 551.95C436.133 551.95 377.333 610.75 377.333 683.283C377.333 755.817 436.133 814.617 508.667 814.617Z" fill="#168AAD"/>
<path d="M711.333 825.283C769.139 825.283 816 778.422 816 720.617C816 662.811 769.139 615.95 711.333 615.95C653.528 615.95 606.667 662.811 606.667 720.617C606.667 778.422 653.528 825.283 711.333 825.283Z" fill="#168AAD"/>
<path d="M915.333 851.95C981.976 851.95 1036 797.926 1036 731.283C1036 664.641 981.976 610.617 915.333 610.617C848.691 610.617 794.667 664.641 794.667 731.283C794.667 797.926 848.691 851.95 915.333 851.95Z" fill="#168AAD"/>
<path d="M1806 793.283C1706.22 793.283 1625.33 712.396 1625.33 612.617C1625.33 512.837 1706.22 431.95 1806 431.95C1905.78 431.95 1986.67 512.837 1986.67 612.617C1986.67 712.396 1905.78 793.283 1806 793.283Z" fill="#168AAD"/>
<path d="M1592.67 933.283C1492.89 933.283 1412 852.396 1412 752.617C1412 652.837 1492.89 571.95 1592.67 571.95C1692.45 571.95 1773.33 652.837 1773.33 752.617C1773.33 852.396 1692.45 933.283 1592.67 933.283Z" fill="#168AAD"/>
<path d="M1322 814.617C1249.47 814.617 1190.67 755.817 1190.67 683.283C1190.67 610.75 1249.47 551.95 1322 551.95C1394.53 551.95 1453.33 610.75 1453.33 683.283C1453.33 755.817 1394.53 814.617 1322 814.617Z" fill="#168AAD"/>
<path d="M1119.33 825.283C1061.53 825.283 1014.67 778.422 1014.67 720.617C1014.67 662.811 1061.53 615.95 1119.33 615.95C1177.14 615.95 1224 662.811 1224 720.617C1224 778.422 1177.14 825.283 1119.33 825.283Z" fill="#168AAD"/>
<path d="M24.6667 962.617C124.446 962.617 205.333 881.73 205.333 781.95C205.333 682.171 124.446 601.283 24.6667 601.283C-75.1128 601.283 -156 682.171 -156 781.95C-156 881.73 -75.1128 962.617 24.6667 962.617Z" fill="white"/>
<path d="M238 1102.62C337.78 1102.62 418.667 1021.73 418.667 921.95C418.667 822.171 337.78 741.283 238 741.283C138.221 741.283 57.3334 822.171 57.3334 921.95C57.3334 1021.73 138.221 1102.62 238 1102.62Z" fill="white"/>
<path d="M508.667 983.95C581.2 983.95 640 925.15 640 852.617C640 780.083 581.2 721.283 508.667 721.283C436.133 721.283 377.333 780.083 377.333 852.617C377.333 925.15 436.133 983.95 508.667 983.95Z" fill="white"/>
<path d="M711.333 994.617C769.139 994.617 816 947.756 816 889.95C816 832.144 769.139 785.283 711.333 785.283C653.528 785.283 606.667 832.144 606.667 889.95C606.667 947.756 653.528 994.617 711.333 994.617Z" fill="white"/>
<path d="M915.333 1021.28C981.976 1021.28 1036 967.259 1036 900.617C1036 833.974 981.976 779.95 915.333 779.95C848.691 779.95 794.667 833.974 794.667 900.617C794.667 967.259 848.691 1021.28 915.333 1021.28Z" fill="white"/>
<path d="M1806 962.617C1706.22 962.617 1625.33 881.729 1625.33 781.95C1625.33 682.171 1706.22 601.283 1806 601.283C1905.78 601.283 1986.67 682.171 1986.67 781.95C1986.67 881.729 1905.78 962.617 1806 962.617Z" fill="white"/>
<path d="M1592.67 1102.62C1492.89 1102.62 1412 1021.73 1412 921.95C1412 822.171 1492.89 741.283 1592.67 741.283C1692.45 741.283 1773.33 822.171 1773.33 921.95C1773.33 1021.73 1692.45 1102.62 1592.67 1102.62Z" fill="white"/>
<path d="M1322 983.95C1249.47 983.95 1190.67 925.15 1190.67 852.617C1190.67 780.083 1249.47 721.283 1322 721.283C1394.53 721.283 1453.33 780.083 1453.33 852.617C1453.33 925.15 1394.53 983.95 1322 983.95Z" fill="white"/>
<path d="M1119.33 994.617C1061.53 994.617 1014.67 947.756 1014.67 889.95C1014.67 832.144 1061.53 785.283 1119.33 785.283C1177.14 785.283 1224 832.144 1224 889.95C1224 947.756 1177.14 994.617 1119.33 994.617Z" fill="white"/>
<path d="M918.667 147.95C333.067 356.483 46.2223 205.061 -24 103.283V-456.05H1938.67V156.617C1842.67 66.8393 1504.27 -60.5833 918.667 147.95Z" fill="#168AAD"/>
</g>
</g>
</g>
<defs>
<clipPath id="clip0_2_5">
<rect width="1920" height="899.95" fill="white"/>
</clipPath>
<clipPath id="clip1_2_5">
<rect width="1920" height="1133.33" fill="white" transform="translate(0 -233.383)"/>
</clipPath>
</defs>
</svg>