<svg width="58" height="57" viewBox="0 0 58 57" fill="none" xmlns="http://www.w3.org/2000/svg">
<g clip-path="url(#clip0_2_1137)">
<g clip-path="url(#clip1_2_1137)">
<g clip-path="url(#clip2_2_1137)">
<path d="M47.17 0H10.17C4.64714 0 0.169983 4.47715 0.169983 10V47C0.169983 52.5228 4.64714 57 10.17 57H47.17C52.6928 57 57.17 52.5228 57.17 47V10C57.17 4.47715 52.6928 0 47.17 0Z" fill="#40CCD4" fill-opacity="0.2"/>
<path d="M27.87 43.2999C29.7925 43.2999 31.4007 42.181 31.77 40.7H23.97C24.3395 42.181 25.9477 43.2999 27.87 43.2999Z" fill="#40CCD4"/>
<path d="M36.0736 29.5764C36.0689 29.5764 36.0642 29.5775 36.0595 29.5775C31.5447 29.5775 27.87 25.7222 27.87 20.9832C27.87 19.6804 28.1556 18.4488 28.6528 17.3414C28.3953 17.3158 28.1343 17.2998 27.87 17.2998C23.3471 17.2998 19.6805 21.1475 19.6805 25.8942V29.3172C19.6805 31.747 18.6662 34.0405 16.8867 35.6194C16.2935 36.1511 16.0302 36.9982 16.2431 37.8246C16.4912 38.7859 17.3967 39.3998 18.3468 39.3998H37.3874C38.3842 39.3998 39.3238 38.722 39.526 37.6969C39.6828 36.9037 39.4137 36.1117 38.8276 35.5949C37.1265 34.0983 36.1426 31.8992 36.0736 29.5764Z" fill="#40CCD4"/>
<path d="M42.17 20.5501C42.17 23.7809 39.551 26.4 36.3199 26.4C33.089 26.4 30.47 23.7809 30.47 20.5501C30.47 17.3192 33.089 14.7 36.3199 14.7C39.551 14.7 42.17 17.3192 42.17 20.5501Z" fill="#40CCD4"/>
</g>
</g>
</g>
<defs>
<clipPath id="clip0_2_1137">
<rect width="57" height="57" fill="white" transform="translate(0.169983)"/>
</clipPath>
<clipPath id="clip1_2_1137">
<rect width="57" height="57" fill="white" transform="translate(0.169983)"/>
</clipPath>
<clipPath id="clip2_2_1137">
<rect width="57" height="57" fill="white" transform="translate(0.169983)"/>
</clipPath>
</defs>
</svg>
