<svg width="53" height="25" viewBox="0 0 53 25" fill="none" xmlns="http://www.w3.org/2000/svg">
<g clip-path="url(#clip0_2_682)">
<g clip-path="url(#clip1_2_682)">
<g clip-path="url(#clip2_2_682)">
<path d="M51.7307 13.7307C52.3164 13.1449 52.3164 12.1951 51.7307 11.6093L42.1847 2.06337C41.5989 1.47758 40.6492 1.47758 40.0634 2.06337C39.4776 2.64915 39.4776 3.5989 40.0634 4.18469L48.5487 12.67L40.0634 21.1553C39.4776 21.7411 39.4776 22.6908 40.0634 23.2766C40.6492 23.8624 41.5989 23.8624 42.1847 23.2766L51.7307 13.7307ZM0.669983 14.17H50.67V11.17H0.669983L0.669983 14.17Z" fill="black"/>
</g>
</g>
</g>
<defs>
<clipPath id="clip0_2_682">
<rect width="52" height="24" fill="white" transform="translate(0.669983 0.669922)"/>
</clipPath>
<clipPath id="clip1_2_682">
<rect width="52" height="24" fill="white" transform="translate(0.669983 0.669922)"/>
</clipPath>
<clipPath id="clip2_2_682">
<rect width="52" height="24" fill="white" transform="translate(0.669983 0.669922)"/>
</clipPath>
</defs>
</svg>
