<svg width="57" height="57" viewBox="0 0 57 57" fill="none" xmlns="http://www.w3.org/2000/svg">
<g clip-path="url(#clip0_2_1148)">
<g clip-path="url(#clip1_2_1148)">
<g clip-path="url(#clip2_2_1148)">
<path d="M47 0H10C4.47715 0 0 4.47715 0 10V47C0 52.5228 4.47715 57 10 57H47C52.5228 57 57 52.5228 57 47V10C57 4.47715 52.5228 0 47 0Z" fill="#FE7698" fill-opacity="0.1"/>
<path d="M40.9001 17.1H39.3501V15.55C39.3501 14.62 38.7301 14 37.8001 14C36.8701 14 36.25 14.62 36.25 15.55V17.1H20.75V15.55C20.75 14.62 20.13 14 19.2 14C18.27 14 17.65 14.62 17.65 15.55V17.1H14.55C13.775 17.1 13 17.72 13 18.65V40.3501C13 41.2801 13.775 41.9001 14.55 41.9001H24.005C22.92 40.0401 22.3 37.8701 22.3 35.7C22.3 28.88 27.88 23.3 34.7 23.3C37.6451 23.3 40.2801 24.385 42.4501 26.09V18.65C42.4501 17.875 41.6751 17.1 40.9001 17.1Z" fill="#FE7698"/>
<path d="M34.7 26.3999C29.585 26.3999 25.4 30.5849 25.4 35.6999C25.4 40.815 29.585 45 34.7 45C39.815 45 44 40.815 44 35.6999C44 30.5849 39.815 26.3999 34.7 26.3999ZM37.8 37.2499H34.7C33.77 37.2499 33.15 36.6299 33.15 35.6999V31.0499C33.15 30.1199 33.77 29.4999 34.7 29.4999C35.63 29.4999 36.25 30.1199 36.25 31.0499V34.1499H37.8C38.73 34.1499 39.35 34.7699 39.35 35.6999C39.35 36.6299 38.73 37.2499 37.8 37.2499Z" fill="#FE7698"/>
</g>
</g>
</g>
<defs>
<clipPath id="clip0_2_1148">
<rect width="57" height="57" fill="white"/>
</clipPath>
<clipPath id="clip1_2_1148">
<rect width="57" height="57" fill="white"/>
</clipPath>
<clipPath id="clip2_2_1148">
<rect width="57" height="57" fill="white"/>
</clipPath>
</defs>
</svg>
