<svg width="1920" height="900" viewBox="0 0 1920 900" fill="none" xmlns="http://www.w3.org/2000/svg">
<g clip-path="url(#clip0_2_4)">
<g clip-path="url(#clip1_2_4)">
<mask id="mask0_2_4" style="mask-type:alpha" maskUnits="userSpaceOnUse" x="0" y="-234" width="1920" height="1134">
<path d="M1920 -233.383H0V899.95H1920V-233.383Z" fill="#D9D9D9"/>
</mask>
<g mask="url(#mask0_2_4)">
<path d="M1920 -260.05H0V893.283H1920V-260.05Z" fill="#1A759F"/>
<path d="M24.6667 793.283C124.446 793.283 205.333 712.396 205.333 612.617C205.333 512.837 124.446 431.95 24.6667 431.95C-75.1128 431.95 -156 512.837 -156 612.617C-156 712.396 -75.1128 793.283 24.6667 793.283Z" fill="#168AAD"/>
<path d="M238 933.283C337.78 933.283 418.667 852.396 418.667 752.617C418.667 652.837 337.78 571.95 238 571.95C138.221 571.95 57.3334 652.837 57.3334 752.617C57.3334 852.396 138.221 933.283 238 933.283Z" fill="#168AAD"/>
<path d="M508.667 814.617C581.2 814.617 640 755.817 640 683.283C640 610.75 581.2 551.95 508.667 551.95C436.133 551.95 377.333 610.75 377.333 683.283C377.333 755.817 436.133 814.617 508.667 814.617Z" fill="#168AAD"/>
<path d="M711.333 825.283C769.139 825.283 816 778.422 816 720.617C816 662.811 769.139 615.95 711.333 615.95C653.528 615.95 606.667 662.811 606.667 720.617C606.667 778.422 653.528 825.283 711.333 825.283Z" fill="#168AAD"/>
<path d="M915.333 851.95C981.976 851.95 1036 797.926 1036 731.283C1036 664.641 981.976 610.617 915.333 610.617C848.691 610.617 794.667 664.641 794.667 731.283C794.667 797.926 848.691 851.95 915.333 851.95Z" fill="#168AAD"/>
<path d="M1806 793.283C1706.22 793.283 1625.33 712.396 1625.33 612.617C1625.33 512.837 1706.22 431.95 1806 431.95C1905.78 431.95 1986.67 512.837 1986.67 612.617C1986.67 712.396 1905.78 793.283 1806 793.283Z" fill="#168AAD"/>
<path d="M1592.67 933.283C1492.89 933.283 1412 852.396 1412 752.617C1412 652.837 1492.89 571.95 1592.67 571.95C1692.45 571.95 1773.33 652.837 1773.33 752.617C1773.33 852.396 1692.45 933.283 1592.67 933.283Z" fill="#168AAD"/>
<path d="M1322 814.617C1249.47 814.617 1190.67 755.817 1190.67 683.283C1190.67 610.75 1249.47 551.95 1322 551.95C1394.53 551.95 1453.33 610.75 1453.33 683.283C1453.33 755.817 1394.53 814.617 1322 814.617Z" fill="#168AAD"/>
<path d="M1119.33 825.283C1061.53 825.283 1014.67 778.422 1014.67 720.617C1014.67 662.811 1061.53 615.95 1119.33 615.95C1177.14 615.95 1224 662.811 1224 720.617C1224 778.422 1177.14 825.283 1119.33 825.283Z" fill="#168AAD"/>
<path d="M24.6667 962.617C124.446 962.617 205.333 881.73 205.333 781.95C205.333 682.171 124.446 601.283 24.6667 601.283C-75.1128 601.283 -156 682.171 -156 781.95C-156 881.73 -75.1128 962.617 24.6667 962.617Z" fill="white"/>
<path d="M238 1102.62C337.78 1102.62 418.667 1021.73 418.667 921.95C418.667 822.171 337.78 741.283 238 741.283C138.221 741.283 57.3334 822.171 57.3334 921.95C57.3334 1021.73 138.221 1102.62 238 1102.62Z" fill="white"/>
<path d="M508.667 983.95C581.2 983.95 640 925.15 640 852.617C640 780.083 581.2 721.283 508.667 721.283C436.133 721.283 377.333 780.083 377.333 852.617C377.333 925.15 436.133 983.95 508.667 983.95Z" fill="white"/>
<path d="M711.333 994.617C769.139 994.617 816 947.756 816 889.95C816 832.144 769.139 785.283 711.333 785.283C653.528 785.283 606.667 832.144 606.667 889.95C606.667 947.756 653.528 994.617 711.333 994.617Z" fill="white"/>
<path d="M915.333 1021.28C981.976 1021.28 1036 967.259 1036 900.617C1036 833.974 981.976 779.95 915.333 779.95C848.691 779.95 794.667 833.974 794.667 900.617C794.667 967.259 848.691 1021.28 915.333 1021.28Z" fill="white"/>
<path d="M1806 962.617C1706.22 962.617 1625.33 881.729 1625.33 781.95C1625.33 682.171 1706.22 601.283 1806 601.283C1905.78 601.283 1986.67 682.171 1986.67 781.95C1986.67 881.729 1905.78 962.617 1806 962.617Z" fill="white"/>
<path d="M1592.67 1102.62C1492.89 1102.62 1412 1021.73 1412 921.95C1412 822.171 1492.89 741.283 1592.67 741.283C1692.45 741.283 1773.33 822.171 1773.33 921.95C1773.33 1021.73 1692.45 1102.62 1592.67 1102.62Z" fill="white"/>
<path d="M1322 983.95C1249.47 983.95 1190.67 925.15 1190.67 852.617C1190.67 780.083 1249.47 721.283 1322 721.283C1394.53 721.283 1453.33 780.083 1453.33 852.617C1453.33 925.15 1394.53 983.95 1322 983.95Z" fill="white"/>
<path d="M1119.33 994.617C1061.53 994.617 1014.67 947.756 1014.67 889.95C1014.67 832.144 1061.53 785.283 1119.33 785.283C1177.14 785.283 1224 832.144 1224 889.95C1224 947.756 1177.14 994.617 1119.33 994.617Z" fill="white"/>
<path d="M918.667 147.95C333.067 356.483 46.2223 205.061 -24 103.283V-456.05H1938.67V156.617C1842.67 66.8393 1504.27 -60.5833 918.667 147.95Z" fill="#168AAD"/>
</g>
<rect x="1709.5" y="21.5" width="155" height="47" rx="23.5" fill="#D9ED92"/>
<rect x="1709.5" y="21.5" width="155" height="47" rx="23.5" stroke="white"/>
<path d="M1765.35 50.112C1764.61 50.112 1763.95 49.984 1763.36 49.728C1762.79 49.4613 1762.33 49.0987 1762 48.64C1761.67 48.1707 1761.5 47.632 1761.49 47.024H1763.04C1763.1 47.5467 1763.31 47.9893 1763.68 48.352C1764.07 48.704 1764.62 48.88 1765.35 48.88C1766.04 48.88 1766.59 48.7093 1766.98 48.368C1767.39 48.016 1767.59 47.568 1767.59 47.024C1767.59 46.5973 1767.47 46.2507 1767.24 45.984C1767 45.7173 1766.71 45.5147 1766.36 45.376C1766 45.2373 1765.53 45.088 1764.93 44.928C1764.2 44.736 1763.6 44.544 1763.16 44.352C1762.72 44.16 1762.34 43.8613 1762.02 43.456C1761.71 43.04 1761.56 42.4853 1761.56 41.792C1761.56 41.184 1761.71 40.6453 1762.02 40.176C1762.33 39.7067 1762.76 39.344 1763.32 39.088C1763.88 38.832 1764.53 38.704 1765.25 38.704C1766.3 38.704 1767.15 38.9653 1767.81 39.488C1768.48 40.0107 1768.86 40.704 1768.95 41.568H1767.35C1767.29 41.1413 1767.07 40.768 1766.68 40.448C1766.28 40.1173 1765.76 39.952 1765.11 39.952C1764.5 39.952 1764 40.112 1763.62 40.432C1763.24 40.7413 1763.04 41.1787 1763.04 41.744C1763.04 42.1493 1763.16 42.48 1763.38 42.736C1763.61 42.992 1763.9 43.1893 1764.23 43.328C1764.57 43.456 1765.04 43.6053 1765.65 43.776C1766.39 43.9787 1766.98 44.1813 1767.43 44.384C1767.88 44.576 1768.26 44.88 1768.58 45.296C1768.9 45.7013 1769.06 46.256 1769.06 46.96C1769.06 47.504 1768.92 48.016 1768.63 48.496C1768.34 48.976 1767.91 49.3653 1767.35 49.664C1766.78 49.9627 1766.12 50.112 1765.35 50.112ZM1771.95 39.808C1771.68 39.808 1771.44 39.712 1771.25 39.52C1771.06 39.328 1770.96 39.0933 1770.96 38.816C1770.96 38.5387 1771.06 38.304 1771.25 38.112C1771.44 37.92 1771.68 37.824 1771.95 37.824C1772.22 37.824 1772.45 37.92 1772.63 38.112C1772.82 38.304 1772.91 38.5387 1772.91 38.816C1772.91 39.0933 1772.82 39.328 1772.63 39.52C1772.45 39.712 1772.22 39.808 1771.95 39.808ZM1772.66 41.232V50H1771.2V41.232H1772.66ZM1778.76 41.088C1779.51 41.088 1780.17 41.2533 1780.74 41.584C1781.32 41.9147 1781.74 42.3307 1782.02 42.832V41.232H1783.49V50.192C1783.49 50.992 1783.32 51.7013 1782.98 52.32C1782.64 52.9493 1782.15 53.44 1781.51 53.792C1780.88 54.144 1780.14 54.32 1779.3 54.32C1778.15 54.32 1777.19 54.048 1776.42 53.504C1775.65 52.96 1775.2 52.2187 1775.06 51.28H1776.5C1776.66 51.8133 1776.99 52.24 1777.49 52.56C1777.99 52.8907 1778.6 53.056 1779.3 53.056C1780.1 53.056 1780.75 52.8053 1781.25 52.304C1781.76 51.8027 1782.02 51.0987 1782.02 50.192V48.352C1781.73 48.864 1781.31 49.2907 1780.74 49.632C1780.17 49.9733 1779.51 50.144 1778.76 50.144C1777.98 50.144 1777.27 49.952 1776.63 49.568C1776 49.184 1775.5 48.6453 1775.14 47.952C1774.78 47.2587 1774.6 46.4693 1774.6 45.584C1774.6 44.688 1774.78 43.904 1775.14 43.232C1775.5 42.5493 1776 42.0213 1776.63 41.648C1777.27 41.2747 1777.98 41.088 1778.76 41.088ZM1782.02 45.6C1782.02 44.9387 1781.89 44.3627 1781.62 43.872C1781.35 43.3813 1780.99 43.008 1780.53 42.752C1780.08 42.4853 1779.59 42.352 1779.04 42.352C1778.5 42.352 1778 42.48 1777.56 42.736C1777.11 42.992 1776.75 43.3653 1776.48 43.856C1776.22 44.3467 1776.08 44.9227 1776.08 45.584C1776.08 46.256 1776.22 46.8427 1776.48 47.344C1776.75 47.8347 1777.11 48.2133 1777.56 48.48C1778 48.736 1778.5 48.864 1779.04 48.864C1779.59 48.864 1780.08 48.736 1780.53 48.48C1780.99 48.2133 1781.35 47.8347 1781.62 47.344C1781.89 46.8427 1782.02 46.2613 1782.02 45.6ZM1790.22 41.072C1791.29 41.072 1792.16 41.3973 1792.82 42.048C1793.48 42.688 1793.81 43.616 1793.81 44.832V50H1792.37V45.04C1792.37 44.1653 1792.15 43.4987 1791.71 43.04C1791.28 42.5707 1790.68 42.336 1789.92 42.336C1789.15 42.336 1788.54 42.576 1788.08 43.056C1787.63 43.536 1787.41 44.2347 1787.41 45.152V50H1785.95V41.232H1787.41V42.48C1787.7 42.032 1788.09 41.6853 1788.58 41.44C1789.08 41.1947 1789.63 41.072 1790.22 41.072ZM1801.91 38.848V50H1800.45V38.848H1801.91ZM1808.66 41.072C1809.73 41.072 1810.59 41.3973 1811.25 42.048C1811.92 42.688 1812.25 43.616 1812.25 44.832V50H1810.81V45.04C1810.81 44.1653 1810.59 43.4987 1810.15 43.04C1809.71 42.5707 1809.12 42.336 1808.36 42.336C1807.59 42.336 1806.98 42.576 1806.52 43.056C1806.07 43.536 1805.85 44.2347 1805.85 45.152V50H1804.39V41.232H1805.85V42.48C1806.13 42.032 1806.52 41.6853 1807.01 41.44C1807.52 41.1947 1808.06 41.072 1808.66 41.072Z" fill="black"/>
</g>
</g>
<defs>
<clipPath id="clip0_2_4">
<rect width="1920" height="899.95" fill="white"/>
</clipPath>
<clipPath id="clip1_2_4">
<rect width="1920" height="1133.33" fill="white" transform="translate(0 -233.383)"/>
</clipPath>
</defs>
</svg>
