<svg width="228" height="37" viewBox="0 0 228 37" fill="none" xmlns="http://www.w3.org/2000/svg">
<g clip-path="url(#clip0_2_1070)">
<path d="M223.546 22.7099C223.546 22.7099 223.505 22.762 223.421 22.8349C223.348 22.9078 223.182 23.0015 223.119 23.1368C223.078 23.1993 223.036 23.2618 222.994 23.3138C222.953 23.3867 222.922 23.4805 222.88 23.5429C222.828 23.6158 222.797 23.6991 222.776 23.7824C222.755 23.8449 222.703 24.0011 222.693 23.9803L222.63 24.3239C222.63 24.376 222.609 24.4384 222.599 24.4905V24.5946C222.599 24.6675 222.578 24.7508 222.578 24.8237C222.588 24.8966 222.599 24.9799 222.599 25.0632C222.599 25.2298 222.651 25.3547 222.672 25.4588C222.703 25.563 222.713 25.6358 222.713 25.6358C222.713 25.6358 222.651 25.6254 222.557 25.5734C222.474 25.5109 222.276 25.4484 222.172 25.2714C222.037 25.1152 221.912 24.8965 221.88 24.5946C221.849 24.4488 221.828 24.303 221.849 24.2093L221.891 23.8657C221.974 23.6366 222.016 23.5846 222.078 23.4388C222.12 23.3034 222.224 23.2097 222.318 23.116C222.411 23.0223 222.505 22.939 222.599 22.8661C222.713 22.8036 222.828 22.7515 222.932 22.7203C223.13 22.6266 223.276 22.6995 223.39 22.6891C223.505 22.6891 223.567 22.7099 223.567 22.7099H223.546Z" fill="#FFE781"/>
<path d="M222.13 22.7209C222.13 22.7209 222.099 22.773 222.036 22.8355C221.984 22.898 221.849 22.9917 221.818 23.1062C221.786 23.1583 221.766 23.2103 221.734 23.252C221.703 23.3041 221.693 23.3769 221.662 23.4394C221.62 23.4915 221.609 23.5539 221.589 23.6268C221.578 23.6685 221.537 23.8039 221.537 23.7622L221.485 24.0329C221.464 24.1371 221.443 24.1996 221.453 24.2412C221.453 24.2933 221.432 24.3453 221.422 24.4078C221.422 24.4703 221.422 24.5327 221.422 24.5952C221.412 24.7306 221.432 24.8348 221.453 24.9181C221.474 25.0014 221.474 25.0742 221.474 25.0742C221.474 25.0742 221.422 25.0742 221.339 25.0326C221.266 24.9909 221.089 24.9493 220.995 24.8035C220.87 24.6785 220.766 24.5015 220.735 24.2516C220.704 24.1267 220.683 24.0017 220.704 23.9288L220.735 23.6581C220.808 23.4498 220.839 23.4186 220.901 23.2936C220.943 23.1895 221.026 23.1062 221.11 23.0333C221.255 22.8771 221.453 22.7626 221.63 22.7209C221.807 22.648 221.922 22.7209 222.016 22.7209C222.109 22.7418 222.161 22.7626 222.161 22.7626L222.13 22.7209Z" fill="#FFE781"/>
<path d="M225.889 23.2096C225.889 23.2096 225.952 23.2305 226.056 23.2825C226.139 23.345 226.306 23.3658 226.42 23.5532C226.483 23.6365 226.556 23.7407 226.618 23.8552C226.66 23.9698 226.691 24.0843 226.722 24.2092C226.754 24.3446 226.774 24.48 226.753 24.6153L226.701 25.0319C226.618 25.2401 226.587 25.2713 226.535 25.3963C226.504 25.49 226.41 25.6045 226.306 25.7086C226.118 25.9377 225.9 26.0627 225.702 26.1148C225.525 26.2085 225.327 26.1564 225.223 26.1668C225.108 26.1668 225.046 26.1356 225.046 26.1356C225.046 26.1356 225.098 26.0835 225.181 26.0107C225.265 25.9378 225.369 25.8648 225.452 25.7191C225.494 25.6566 225.546 25.5941 225.598 25.5316C225.639 25.4588 225.66 25.3859 225.702 25.3234L225.764 25.2297C225.764 25.2297 225.796 25.1255 225.816 25.0735L225.921 24.8027C225.931 24.6257 226.025 24.4487 226.014 24.2717C226.014 24.1884 226.035 24.0947 226.035 24.0114C226.025 23.9385 226.025 23.8656 226.025 23.7927C226.045 23.6365 225.952 23.4699 225.931 23.3762C225.9 23.2721 225.889 23.1992 225.889 23.1992V23.2096Z" fill="#FFE781"/>
<path d="M227.128 23.8037C227.128 23.8037 227.191 23.8141 227.274 23.8453C227.357 23.8974 227.493 23.8974 227.597 24.0432C227.732 24.1785 227.836 24.3868 227.878 24.595C227.909 24.6992 227.93 24.8137 227.909 24.9282L227.868 25.2719C227.795 25.4593 227.774 25.4593 227.722 25.5738C227.701 25.6467 227.618 25.7404 227.524 25.8341C227.368 26.032 227.17 26.1257 227.003 26.1674C226.847 26.2402 226.68 26.1778 226.597 26.1778C226.503 26.157 226.462 26.1362 226.462 26.1362C226.462 26.1362 226.503 26.0841 226.566 26.0216C226.628 25.9592 226.701 25.8863 226.764 25.7613C226.795 25.7092 226.826 25.6572 226.868 25.6051C226.889 25.5426 226.899 25.4905 226.93 25.4489C226.962 25.4176 226.972 25.3552 227.014 25.2615L227.097 25.0532C227.097 24.9178 227.18 24.7929 227.18 24.6576C227.18 24.5951 227.201 24.5222 227.212 24.4597C227.212 24.4077 227.212 24.3556 227.212 24.2931C227.243 24.1785 227.18 24.0223 227.17 23.9494C227.149 23.8557 227.149 23.8037 227.149 23.8037H227.128Z" fill="#FFE781"/>
<path d="M4.97223 1.83301V1.88506C5.00347 4.43618 5.78444 12.0896 8.89785 13.7244C10.0537 14.3283 12.4486 15.7653 14.9893 17.2855L15.0205 17.3063C19.5917 20.0449 23.4445 22.3357 24.2879 22.544L24.3816 22.5648H24.4857L26.36 22.3253L26.7036 22.2836L26.8285 21.9608L29.2756 15.3279L31.0458 20.2844L31.1811 20.6801H31.5977C32.4307 20.6489 34.5965 20.5655 36.7311 20.3052C39.4384 19.9824 41.1565 19.4931 41.8438 18.8579C42.0104 18.7017 42.1562 18.6184 42.2916 18.5976L42.4165 18.5663L42.4581 18.5454C42.4581 18.5454 42.4789 18.5663 42.4998 18.5871L42.5414 18.6288L42.5934 18.6705C42.6663 18.7225 42.7184 18.7954 42.7705 18.8891C43.2911 19.8991 42.8539 23.3457 41.521 24.8244C40.5735 25.8656 36.9393 27.7816 34.2841 29.1769C34.0134 29.3226 33.753 29.458 33.4927 29.5934L32.2745 30.239L33.5865 30.6451C35.6587 31.2803 36.9498 31.7488 37.4496 32.0404C37.3038 32.0924 37.0539 32.1445 36.6374 32.1966C36.4916 32.2174 36.3146 32.2278 36.1272 32.2382L34.5131 32.3215L35.8252 33.2586C36.0855 33.4461 36.1376 33.5815 36.148 33.6752C36.1584 33.7481 36.1168 33.8522 36.0439 33.9563C35.6691 34.4561 34.18 35.31 31.6289 35.6223C28.2864 36.0284 21.3203 35.664 12.1051 28.6354C11.6677 28.3022 10.3349 27.9378 8.94997 28.1044C7.93993 28.2293 7.08604 28.5938 6.43004 29.2081C4.99308 30.5618 5.47203 32.0716 5.86771 33.2795C6.08638 33.9667 6.27387 34.5602 6.06562 34.9663C5.96149 35.1746 5.75325 35.3308 5.43046 35.4245C5.36798 35.4453 5.29502 35.4661 5.23255 35.4661C3.33743 35.6952 1.55695 30.6138 0.640625 25.4699V25.4491C0.807229 25.2929 2.41074 23.6789 2.54611 22.0129C2.83767 18.483 4.04557 16.161 4.39961 15.5362L4.51413 15.3279L4.45159 15.0988C4.0455 13.6098 2.15047 5.99814 4.93067 1.8747L4.96181 1.83301" fill="white"/>
<path d="M42.9267 18.2015C42.781 18.0245 42.5831 17.9204 42.3957 17.9412C42.3228 17.9412 42.2707 17.9724 42.2082 18.0141C41.9583 18.0557 41.7084 18.1806 41.4585 18.4201C41.1253 18.7325 40.0632 19.3052 36.6687 19.7217C34.5861 19.9716 32.4619 20.055 31.5873 20.0862L29.2964 13.6511L26.3079 21.7522L24.4337 21.9813C23.6007 21.7731 18.6234 18.795 15.3226 16.8062C12.761 15.2755 10.3452 13.8281 9.16861 13.2138C6.51336 11.8289 5.58665 4.97734 5.545 1.87434L5.52415 0L4.47246 1.55155C1.55689 5.88325 3.50404 13.7032 3.92055 15.2338C3.49363 15.9627 2.28578 18.3368 1.99422 21.9501C1.86927 23.4599 0.286623 25.0114 0.265798 25.0218L0.0366211 25.2405L0.0887356 25.5529C0.546896 28.104 2.26501 36.3821 5.30552 36.0073C5.40965 35.9968 5.51369 35.976 5.60741 35.9448C6.06557 35.799 6.39883 35.5491 6.57585 35.2054C6.89864 34.5807 6.65911 33.8518 6.40921 33.0709C6.03435 31.9046 5.63868 30.6968 6.81532 29.593C7.37761 29.0724 8.1169 28.7391 9.01239 28.635C10.2723 28.4788 11.449 28.8225 11.7509 29.0516C21.1224 36.1947 28.2656 36.5696 31.6914 36.153C34.2633 35.8407 35.9501 34.9868 36.4916 34.2683C36.7103 33.9768 36.7312 33.7165 36.6999 33.5499C36.6479 33.2479 36.4604 32.998 36.148 32.7689C36.3355 32.7689 36.5229 32.7481 36.6895 32.7273C37.3351 32.644 38.2618 32.519 38.4492 32.3316C38.5742 32.2066 38.6054 32.0296 38.5429 31.8734C38.3346 31.384 36.2105 30.4052 34.2217 29.7909C34.482 29.6555 34.7423 29.5097 35.0027 29.3743C37.8453 27.8749 40.9067 26.2818 41.9167 25.1676C43.3433 23.5953 43.9263 19.9092 43.2495 18.5972C43.1557 18.4098 43.0308 18.2744 42.9163 18.1911L42.9267 18.2015ZM31.5664 35.0076C28.3176 35.4033 21.5286 35.0285 12.4799 28.1352C11.876 27.6771 10.3661 27.3022 8.88744 27.4792C7.75246 27.6146 6.76326 28.052 6.03437 28.7496C4.31626 30.3636 4.90985 32.217 5.31595 33.4457C5.46173 33.9143 5.64913 34.487 5.55542 34.6848C5.52418 34.7369 5.42004 34.7994 5.28468 34.841C5.25344 34.8514 5.22224 34.8619 5.191 34.8619C3.86858 35.0181 2.17133 30.2594 1.30707 25.657C1.81729 25.1051 3.0355 23.6369 3.17086 22.0646C3.50407 18.0869 5.04522 15.692 5.05563 15.6712L5.20142 15.4421L5.11804 15.1818C5.09721 15.1089 3.25422 8.77793 4.52457 4.29004C4.8786 7.77831 5.96147 12.8806 8.62713 14.2759C9.77253 14.8694 12.1778 16.3168 14.7185 17.837C22.1116 22.2728 23.8818 23.2308 24.4961 23.1683C24.923 29.77 29.6192 31.3736 30.6397 31.6443C30.9937 32.0608 31.8059 32.3524 33.1596 32.8001C33.8364 33.0292 35.0234 33.4145 35.4608 33.7164C35.0547 34.0601 33.8052 34.7473 31.5768 35.018L31.5664 35.0076ZM37.1268 31.8213C36.7311 31.9567 35.7523 32.04 34.7631 32.0608C34.3153 31.8838 34.1384 31.8838 33.524 31.6756C33.0138 31.509 32.3265 31.2799 31.8996 31.082C32.2328 30.8842 32.7014 30.6239 33.2533 30.3323C35.19 30.9779 36.6374 31.4777 37.1372 31.811L37.1268 31.8213ZM40.5526 24.8448C39.1989 25.8861 36.1271 27.5001 33.9925 28.6247C33.3261 28.9787 32.7222 29.291 32.212 29.5722C27.7866 26.6983 27.2972 23.5537 27.2659 22.502L29.2652 17.0873L30.7542 21.2733H31.1707C31.1707 21.2733 34.0238 21.2211 36.7936 20.8879C39.3343 20.5756 41.0212 20.1382 41.9167 19.5343C42.0209 19.7217 42.177 19.7946 42.354 19.805C42.4269 20.9088 42.1041 22.9809 41.2503 24.1576C41.2503 24.1576 40.8754 24.6158 40.5422 24.8448H40.5526Z" fill="#101820"/>
<path d="M3.57701 0.0830078C3.57701 0.0830078 3.51449 0.14551 3.39995 0.239224C3.27499 0.343352 3.17088 0.468256 3.0251 0.645273C2.88974 0.822289 2.76482 1.03059 2.67111 1.27008C2.61904 1.38462 2.5774 1.51997 2.54616 1.64492C2.49409 1.76987 2.49413 1.90525 2.45248 2.04061C2.45248 2.13433 2.40037 2.37384 2.41079 2.45715C2.41079 2.57169 2.40037 2.70704 2.41079 2.83199C2.43161 3.09231 2.48369 3.33179 2.55658 3.54005C2.62947 3.7483 2.71274 3.9253 2.78563 4.03984C2.85852 4.16479 2.90016 4.23768 2.90016 4.23768C2.90016 4.23768 2.81688 4.21685 2.67111 4.16479C2.53574 4.10231 2.32749 3.98778 2.15047 3.78994C1.96304 3.5921 1.7965 3.31099 1.69237 2.97778C1.65072 2.81118 1.59856 2.63414 1.59856 2.4363C1.58815 2.20722 1.59858 2.12391 1.61941 1.90524C1.67147 1.72822 1.69232 1.54078 1.77563 1.37418C1.82769 1.19716 1.93181 1.05137 2.02552 0.905591C2.22336 0.614034 2.4733 0.405805 2.7128 0.280852C2.94188 0.145487 3.19175 0.0934205 3.32711 0.0830078C3.47289 0.0830078 3.55616 0.0830078 3.55616 0.0830078H3.57701Z" fill="#101820"/>
<path d="M1.65065 0.323242C1.65065 0.323242 1.609 0.385734 1.5257 0.469035C1.45281 0.56275 1.28618 0.666905 1.23411 0.823096C1.19246 0.895985 1.16123 0.968887 1.10917 1.03137C1.07793 1.11467 1.04671 1.21874 1.00506 1.30204C0.900936 1.46865 0.911313 1.69772 0.838424 1.88515L0.817578 2.20795C0.817578 2.27042 0.807145 2.33295 0.796732 2.39543L0.817578 2.52038C0.827991 2.60368 0.817578 2.6974 0.817578 2.7807C0.848816 2.864 0.869703 2.95771 0.880116 3.04102C0.900941 3.22844 0.994671 3.33252 1.02591 3.44706C1.07797 3.5616 1.09874 3.63455 1.09874 3.63455C1.09874 3.63455 1.03622 3.62409 0.92168 3.58243C0.817553 3.53037 0.609369 3.47835 0.474004 3.30133C0.401115 3.21803 0.317833 3.1243 0.234531 3.02017C0.172055 2.90563 0.119966 2.75984 0.0783147 2.61406C0.026251 2.45787 -0.015344 2.31213 0.00548149 2.19759C0.00548149 2.05181 0.00548149 1.9997 0.00548149 1.76021L0.140725 1.33331C0.171963 1.18753 0.265764 1.0626 0.359479 0.958467C0.442781 0.843927 0.536495 0.739749 0.619797 0.646034C0.734337 0.562732 0.848821 0.500307 0.952949 0.43783C1.15079 0.302465 1.31736 0.344067 1.44232 0.323242C1.56727 0.323242 1.64022 0.323242 1.64022 0.323242H1.65065Z" fill="#101820"/>
<path d="M6.88817 0.375C6.88817 0.375 6.97143 0.395833 7.1068 0.447897C7.23175 0.49996 7.45043 0.624898 7.63786 0.82274C7.82529 1.02058 7.99183 1.30169 8.09596 1.6349C8.13761 1.8015 8.18976 1.97852 8.18976 2.15554C8.21059 2.35338 8.18974 2.49914 8.16892 2.72822C8.11685 2.89483 8.10642 3.01981 8.02312 3.21766C7.96065 3.40508 7.85652 3.56125 7.7628 3.70702C7.56496 3.98817 7.31502 4.20687 7.07553 4.33183C6.83604 4.46719 6.60699 4.50884 6.46121 4.52967C6.30502 4.52967 6.22174 4.52967 6.22174 4.52967C6.22174 4.52967 6.28414 4.47758 6.39868 4.37345C6.5028 4.27974 6.63828 4.14436 6.77365 3.96734C6.90901 3.79033 7.03393 3.5821 7.12764 3.3426C7.17971 3.21765 7.22135 3.09267 7.25259 2.98854C7.30465 2.89483 7.31504 2.697 7.35669 2.55123C7.35669 2.46792 7.39837 2.30134 7.38796 2.17638C7.38796 2.04102 7.38796 1.90565 7.38796 1.78069C7.36714 1.52038 7.31506 1.28089 7.24217 1.07264C7.16928 0.864381 7.09642 0.70821 7.01312 0.572844C6.92982 0.447892 6.88817 0.375 6.88817 0.375Z" fill="#101820"/>
<path d="M8.68993 0.978516C8.68993 0.978516 8.76275 0.999339 8.87729 1.04099C8.99183 1.09306 9.15847 1.11388 9.30425 1.30131C9.37714 1.38461 9.47084 1.48878 9.55415 1.60332C9.61662 1.71786 9.66871 1.8428 9.71036 1.97817C9.76243 2.11353 9.80403 2.25928 9.79362 2.40506C9.79362 2.58208 9.80402 2.65502 9.78319 2.91534L9.65825 3.27976C9.63742 3.3943 9.55417 3.51923 9.45004 3.6546C9.36674 3.77955 9.27302 3.8941 9.16889 3.98782C9.06476 4.0607 8.9503 4.12318 8.85658 4.18566C8.67957 4.31061 8.46077 4.30019 8.34623 4.31061C8.22128 4.31061 8.15887 4.31061 8.15887 4.31061C8.15887 4.31061 8.21093 4.25853 8.28382 4.16481C8.35671 4.0711 8.48167 3.98784 8.55456 3.82124C8.59621 3.74835 8.63787 3.66503 8.68993 3.60255C8.72117 3.51925 8.74197 3.42554 8.78362 3.35265L8.83573 3.23813C8.84614 3.18607 8.85647 3.11313 8.87729 3.06107L8.9711 2.69665C8.9711 2.69665 8.9711 2.51964 8.9711 2.44675C8.99192 2.34262 8.99192 2.24887 8.9711 2.14474C8.96069 2.05103 8.97109 1.94693 8.96068 1.85322C8.93985 1.78033 8.91897 1.69705 8.90856 1.61374C8.90856 1.43673 8.77317 1.2909 8.74193 1.17636C8.68987 1.06182 8.6691 0.999362 8.6691 0.999362L8.68993 0.978516Z" fill="#101820"/>
<path d="M31.3583 23.3875C30.9522 22.9709 30.9625 22.2941 31.3894 21.888C31.8163 21.4819 32.4933 21.4924 32.8993 21.9089L32.3683 22.4191C32.2433 22.2941 32.035 22.2837 31.8996 22.4191C31.7747 22.544 31.7643 22.7523 31.8996 22.8772L31.3687 23.3875H31.3583Z" fill="#101820"/>
<path d="M27.2241 21.585C27.2553 22.7721 27.8177 26.3436 32.847 29.6236L31.0456 31.9665C29.8794 31.6645 24.5377 29.8319 24.0587 22.3243L27.2241 21.585Z" fill="#FFC600"/>
<path d="M26.4226 22.7304C26.7558 24.4589 27.8907 27.2079 31.5143 29.8423L30.7126 30.8836C29.1611 30.3109 25.7041 28.447 25.0585 23.0532L26.4122 22.7304M27.2138 21.585L24.0485 22.3243C24.5274 29.8319 29.8796 31.6645 31.0354 31.9665L32.8367 29.6236C27.8074 26.3436 27.2451 22.7721 27.2138 21.585Z" fill="#101820"/>
<path d="M37.4706 25.4275C35.6796 25.4275 35.2005 24.3966 35.1797 24.3445L35.8565 24.0426L35.513 24.1884L35.8461 24.0321C35.8461 24.0321 36.2834 24.8652 38.0432 24.6465C40.0737 24.3862 41.6772 23.8447 41.6981 23.8447L41.9375 24.5424C41.8751 24.5632 40.2508 25.115 38.137 25.3754C37.8975 25.4066 37.6684 25.417 37.4601 25.417L37.4706 25.4275Z" fill="#101820"/>
<path d="M108.194 32.6959L107.808 32.8C107.6 32.8938 107.423 32.9771 107.267 33.0396C107.111 33.1125 106.944 33.1437 106.757 33.1437C106.475 33.1437 106.226 33.0604 106.007 32.8834C105.788 32.7063 105.497 32.3419 105.153 31.79L99.9676 23.6056C101.009 22.5435 102.008 22.002 102.966 22.002C103.539 22.002 104.091 22.1687 104.601 22.5019C105.111 22.8351 105.424 23.0121 105.549 23.0121C105.736 23.0121 105.944 22.8663 106.174 22.5644L106.694 21.7626C106.83 21.5751 106.902 21.3877 106.902 21.2003C106.902 20.8775 106.538 20.5547 105.82 20.2215C105.101 19.8987 104.351 19.7321 103.581 19.7321C102.227 19.7321 101.019 20.1278 99.9676 20.9296C98.9055 21.7313 97.8537 23.033 96.802 24.8448V15.1192C96.802 13.5677 96.8958 12.4119 97.0728 11.6726L97.1873 10.9437C97.2081 10.7563 97.1456 10.5897 96.9998 10.4544C96.854 10.319 96.677 10.2461 96.4896 10.2461C96.1668 10.2461 95.8544 10.4335 95.5524 10.8084C94.9693 11.4331 94.5217 11.8913 94.1989 12.1828C93.8761 12.4744 93.4699 12.7868 92.9805 13.1408C92.4911 13.4844 92.1684 13.7344 92.0226 13.8906C91.8769 14.0363 91.7831 14.2133 91.7623 14.4008C91.7623 14.6507 91.9289 14.8589 92.2517 15.0047C92.5745 15.1609 92.7618 15.3067 92.8139 15.4629C92.8555 15.6087 92.8868 15.9106 92.8868 16.3479V32.7688C92.6994 32.8209 92.4495 32.9355 92.1372 33.1021C91.6582 33.3624 91.2832 33.4873 91.0021 33.4873C90.2315 33.4873 89.8463 32.8626 89.8463 31.613V25.4279C89.8463 21.7001 88.222 19.8362 84.9732 19.8362C83.026 19.8362 81.4016 20.2944 80.1104 21.2003C78.8192 22.1062 78.1736 22.7101 78.1736 23.0121C78.1736 23.3766 78.3611 23.564 78.736 23.564C78.9026 23.564 79.2879 23.4286 79.9126 23.1579C80.527 22.8872 81.0372 22.6893 81.4328 22.5435C81.8285 22.4082 82.4325 22.3457 83.2551 22.3457C84.213 22.3457 84.8795 22.5539 85.2544 22.9808C85.6292 23.4078 85.827 23.7827 85.8687 24.1159C85.8999 24.4491 85.9207 24.9176 85.9207 25.5111V26.3754C84.8065 25.9589 83.7445 25.7507 82.7449 25.7507C80.9018 25.7507 79.4023 26.2505 78.2361 27.2501C77.0698 28.2497 76.4868 29.5409 76.4868 31.1132C76.4868 31.8213 76.6013 32.4565 76.8095 33.0396C76.5388 33.1854 76.3097 33.2999 76.1535 33.3624C75.9557 33.4457 75.7683 33.4873 75.5809 33.4873C74.8103 33.4873 74.4355 32.8 74.4355 31.436V24.4699C74.4355 22.9184 74.1022 21.7522 73.4254 20.9712C72.7486 20.1902 71.7593 19.805 70.4369 19.805C69.479 19.805 68.6356 20.0132 67.8963 20.4297C67.157 20.8462 66.4384 21.5231 65.7408 22.4498V14.2342L65.8761 12.11L65.9804 11.0375C65.9804 10.5272 65.7617 10.2669 65.3139 10.2669C65.0328 10.2669 64.5121 10.6834 63.7312 11.5164C62.9502 12.3494 62.1588 13.0367 61.3466 13.5678C60.9093 13.8281 60.6802 14.1092 60.6802 14.4424C60.6802 14.7027 60.8469 14.911 61.1697 15.0672C61.4925 15.2338 61.6798 15.3483 61.7215 15.4212C61.7631 15.4941 61.7944 15.7232 61.7944 16.1189V32.5502L61.6174 32.5918C60.524 33.1229 59.691 33.4769 59.1079 33.6331C58.5248 33.7997 57.723 33.935 56.6713 34.0496C57.8063 32.8625 58.5768 31.8733 58.9725 31.0716C59.3682 30.2698 59.5661 29.3222 59.5661 28.2393C59.5661 26.7815 59.1392 25.5528 58.2958 24.5844C57.4523 23.6057 55.9529 22.6164 53.8182 21.6272L53.2248 21.346L52.6312 21.0337L52.0377 20.7526L49.8094 19.5655C49.2054 19.1906 48.7785 18.8366 48.5182 18.4825C48.2579 18.1389 48.1329 17.7328 48.1329 17.2643C48.1329 16.4937 48.4557 15.8377 49.1117 15.2755C49.7573 14.7236 50.5279 14.4424 51.413 14.4424C52.6937 14.4424 53.8079 14.7861 54.7554 15.4733C55.7134 16.1605 56.2861 16.5042 56.4944 16.5042C56.7443 16.5042 56.9733 16.3688 57.1503 16.0876L58.025 14.7652C58.2125 14.5049 58.3062 14.2862 58.3062 14.0988C58.3062 13.5678 57.6605 13.068 56.3693 12.5994C55.0781 12.1308 53.7037 11.9017 52.2459 11.9017C49.9968 11.9017 48.1433 12.5369 46.6856 13.7968C45.2278 15.0567 44.5093 16.6812 44.5093 18.6492C44.5093 19.9716 44.8008 21.0129 45.384 21.7834C45.9671 22.5435 46.5814 23.137 47.227 23.5535C47.8726 23.97 48.966 24.5324 50.4966 25.2405C52.0273 25.9485 53.0581 26.4483 53.5788 26.7503C54.0994 27.0522 54.5992 27.4063 55.0781 27.8228C55.5571 28.2393 55.7967 28.9161 55.7967 29.8429C55.7967 30.9362 55.3905 31.8317 54.5575 32.5397C53.7349 33.2478 52.6833 33.6018 51.4026 33.6018C50.757 33.6018 50.0072 33.4456 49.1742 33.1228C48.3412 32.8 47.6435 32.446 47.0812 32.0399C46.519 31.6443 46.2065 31.4152 46.1232 31.3735C46.0399 31.3214 45.9046 31.3006 45.7275 31.3006C45.4256 31.3006 45.1548 31.5089 44.9257 31.9254L44.301 33.1333C44.1344 33.4352 44.0615 33.6747 44.0615 33.8622C44.0615 34.5078 44.8633 35.07 46.4876 35.5594C48.1016 36.0384 49.9552 36.2884 52.0377 36.2884C54.6617 36.2884 57.0567 35.9447 59.2225 35.2575C60.3992 34.8826 61.2426 34.4869 61.784 34.0704V34.3412C61.784 34.9243 61.8464 35.2991 61.9714 35.4761C62.0963 35.6531 62.388 35.7364 62.8253 35.7364H64.5017C65.0119 35.7364 65.3451 35.6531 65.4909 35.4761C65.6367 35.2991 65.7201 34.9138 65.7201 34.3099V27.4167C65.7201 26.0422 65.9804 24.9905 66.501 24.2304C67.0217 23.4807 67.7505 23.0954 68.6772 23.0954C69.8851 23.0954 70.489 23.9701 70.489 25.709V32.394C70.489 34.8098 71.447 36.0176 73.3734 36.0176C74.675 36.0176 75.7787 35.6115 76.7054 34.7785C76.9657 34.539 77.1844 34.3307 77.3823 34.1329C77.528 34.3412 77.6946 34.539 77.8716 34.7264C78.8088 35.6532 79.9854 36.1217 81.4016 36.1217C83.1509 36.1217 84.7128 35.4241 86.0873 34.0288C86.5663 35.4241 87.5035 36.1217 88.8988 36.1217C90.0963 36.1217 91.1687 35.7156 92.1059 34.8826C92.4183 34.6119 92.6786 34.362 92.8868 34.1433V34.4141C92.8868 34.9243 92.9493 35.2783 93.0951 35.4553C93.2304 35.6428 93.4803 35.7364 93.8552 35.7364H95.5837C96.0627 35.7364 96.396 35.6531 96.573 35.4761C96.75 35.2991 96.8333 34.9555 96.8333 34.4453V33.0916C96.8333 30.8633 97.104 28.864 97.6558 27.073L102.019 34.0809C102.508 34.841 102.935 35.3512 103.3 35.6115C103.664 35.8718 104.122 36.0072 104.684 36.0072C105.549 36.0072 106.423 35.6323 107.308 34.893C108.194 34.1537 108.662 33.5706 108.704 33.1541C108.704 33.0187 108.662 32.9042 108.568 32.8105C108.475 32.7168 108.36 32.6855 108.214 32.7064L108.194 32.6959ZM85.9104 29.3847C85.9104 30.2906 85.879 30.9258 85.8061 31.3006C85.7332 31.6755 85.4938 32.1649 85.0877 32.7793C84.6816 33.3936 84.0464 33.7059 83.1821 33.7059C82.4532 33.7059 81.8702 33.4249 81.412 32.8522C80.9538 32.2795 80.7247 31.5401 80.7247 30.603C80.7247 29.6658 80.9538 29.0202 81.4224 28.51C81.891 27.9998 82.547 27.7395 83.3904 27.7395C84.1193 27.7395 84.9524 27.9478 85.9104 28.3643V29.3743V29.3847Z" fill="white"/>
<path d="M122.063 32.1333C121.969 32.1333 121.667 32.2686 121.157 32.5498C120.647 32.8309 120.012 33.0808 119.241 33.3203C118.471 33.5494 117.794 33.664 117.19 33.664C114.524 33.664 112.692 32.2062 111.723 29.2906L117.575 26.8957C118.387 26.5521 118.96 26.1668 119.293 25.7503C119.627 25.3338 119.804 24.7923 119.804 24.1155C119.804 22.9597 119.283 21.96 118.252 21.1062C117.221 20.2628 115.992 19.8359 114.576 19.8359C112.556 19.8359 110.807 20.6168 109.339 22.1787C107.871 23.7407 107.131 25.6045 107.131 27.7495C107.131 30.1132 107.902 32.0917 109.433 33.6952C110.963 35.2988 112.848 36.0901 115.076 36.0901C117.044 36.0901 118.648 35.7048 119.866 34.9447C121.084 34.1742 121.844 33.6536 122.136 33.362C122.428 33.0705 122.573 32.8205 122.573 32.6123C122.573 32.2895 122.407 32.1229 122.084 32.1229L122.063 32.1333ZM111.265 26.2501C111.265 24.9589 111.505 23.8968 111.994 23.0638C112.483 22.2308 113.108 21.8247 113.879 21.8247C114.41 21.8247 114.878 22.0746 115.274 22.5848C115.67 23.095 115.868 23.6886 115.868 24.3862C115.868 24.8965 115.722 25.2921 115.43 25.5837C115.139 25.8752 114.545 26.198 113.639 26.5729L111.38 27.4684L111.276 26.2605L111.265 26.2501Z" fill="white"/>
<path d="M135.621 13.7761C135.621 13.6615 135.59 13.547 135.517 13.4325C135.444 13.3179 135.309 13.1617 135.101 12.9743L134.58 12.5161C134.372 12.3287 134.236 12.2141 134.163 12.1829C134.09 12.1517 133.997 12.1309 133.882 12.1309C133.653 12.1309 133.414 12.3287 133.184 12.7348L128.113 21.3878L123.063 12.9847C122.803 12.5161 122.511 12.2871 122.189 12.2871C121.928 12.2871 121.668 12.4224 121.387 12.7035L118.596 15.1818C118.18 15.5775 117.971 15.9211 117.971 16.2231C117.971 16.4521 118.055 16.6604 118.232 16.827C118.409 17.004 118.617 17.0873 118.877 17.0873L119.325 17.0144L119.815 16.9415C120.189 16.9415 120.585 17.2852 121.002 17.9828L125.042 24.6678V34.2059C125.042 34.7682 125.125 35.1534 125.302 35.3721C125.479 35.5908 125.792 35.7053 126.26 35.7053H128.103C128.665 35.7053 129.03 35.6011 129.196 35.4137C129.373 35.2159 129.457 34.7994 129.457 34.1746V24.6678L135.267 14.6716C135.496 14.3175 135.611 14.0156 135.611 13.7657L135.621 13.7761Z" fill="#101820"/>
<path d="M177.793 32.8626C177.626 32.8626 177.231 33.0292 176.595 33.352C175.96 33.6748 175.408 33.9038 174.96 34.0496C174.513 34.185 174.003 34.2579 173.44 34.2579C172.441 34.2579 171.785 34.0809 171.462 33.7372C171.139 33.3832 170.972 32.6856 170.972 31.6131V27.4376C170.972 26.188 171.181 25.1988 171.597 24.4907C172.014 23.7827 172.597 23.4286 173.336 23.4286C173.794 23.4286 174.169 23.5953 174.45 23.9285C174.731 24.2617 174.961 24.4387 175.148 24.4387C175.564 24.4387 175.773 24.1679 175.773 23.6369V21.5127C175.773 20.7005 175.419 20.2944 174.731 20.2944C174.148 20.2944 173.513 20.5547 172.836 21.065C172.149 21.5752 171.535 22.2416 170.972 23.0538V22.3873L171.056 21.6168L171.139 21.0233C171.139 20.5339 170.91 20.2944 170.441 20.2944C170.212 20.2944 169.931 20.4818 169.608 20.8567C169.286 21.2316 168.848 21.6793 168.307 22.1999C167.755 22.7206 167.276 23.1163 166.839 23.387C166.412 23.6577 166.151 23.8451 166.058 23.9597C165.964 24.0742 165.922 24.2512 165.922 24.4803C165.922 24.8031 166.089 25.0218 166.433 25.1467C166.766 25.2613 166.953 25.4071 166.984 25.5633C167.016 25.7299 167.036 25.9693 167.036 26.2921V32.6543L166.682 32.8001C166.36 32.9979 166.078 33.1541 165.849 33.2582C165.62 33.3728 165.35 33.4249 165.048 33.4249C164.277 33.4249 163.892 32.8834 163.892 31.7901V23.6369C163.892 22.8976 163.975 22.0542 164.131 21.1274L164.204 20.6068C164.204 20.1695 163.996 19.9404 163.579 19.9404C163.277 19.9404 162.882 20.2007 162.413 20.7213C161.934 21.242 161.476 21.7001 161.018 22.0958C160.56 22.4915 160.091 22.856 159.591 23.21C159.091 23.564 158.842 23.8556 158.842 24.1159C158.842 24.4179 159.019 24.6261 159.383 24.7406C159.695 24.876 159.872 25.0322 159.904 25.1884C159.935 25.355 159.956 25.6049 159.956 25.959V28.0831C159.956 29.5201 159.696 30.6655 159.164 31.5089C158.633 32.3523 157.904 32.7793 156.999 32.7793C155.749 32.7793 155.124 31.9671 155.124 30.3427V24.8344C155.124 23.0954 155.197 21.8875 155.353 21.2107L155.468 20.586C155.468 20.1486 155.249 19.9195 154.801 19.9195C154.593 19.9195 154.427 19.9716 154.291 20.0757C154.166 20.1799 153.864 20.5027 153.385 21.0337C153.052 21.4086 152.646 21.7834 152.177 22.1687C152.125 22.1583 152.073 22.1479 152.011 22.1479C151.876 22.1479 151.73 22.1791 151.594 22.252C151.459 22.3249 151.053 22.5539 150.376 22.9705C149.699 23.3766 148.845 23.7098 147.794 23.9597C147.283 22.7101 146.388 21.7105 145.097 20.9504C143.806 20.1903 142.39 19.8154 140.828 19.8154C138.412 19.8154 136.433 20.5652 134.892 22.0542C133.351 23.5432 132.581 25.48 132.581 27.8437C132.581 30.2074 133.341 32.2586 134.84 33.7893C136.35 35.32 138.287 36.0801 140.661 36.0801C143.035 36.0801 145.003 35.3304 146.513 33.8206C148.023 32.3211 148.773 30.3844 148.773 28.0207C148.773 27.625 148.752 27.2606 148.7 26.9273C148.658 26.5941 148.564 26.1672 148.418 25.657C149.064 25.3966 149.71 25.0322 150.355 24.5636C150.407 24.6053 150.47 24.6365 150.543 24.6782C150.865 24.8448 151.053 24.9905 151.105 25.1155C151.147 25.2404 151.178 25.4799 151.178 25.834V31.0195C151.178 31.9254 151.199 32.5398 151.251 32.8626C151.292 33.1853 151.553 33.7893 152.021 34.6744C152.49 35.5595 153.562 35.9968 155.239 35.9968C157.009 35.9968 158.581 34.9763 159.956 32.9354C160.164 34.9763 161.143 35.9968 162.903 35.9968C164.027 35.9968 165.089 35.5907 166.068 34.7681C166.495 34.4141 166.818 34.1121 167.057 33.8413C167.078 33.9975 167.109 34.1329 167.151 34.2579C167.245 34.5182 167.443 34.7785 167.745 35.0388C168.047 35.3096 168.598 35.5491 169.411 35.7469C170.223 35.9552 171.056 36.0593 171.92 36.0593C173.409 36.0593 174.659 35.8094 175.679 35.3096C176.699 34.8098 177.376 34.4037 177.72 34.0913C178.053 33.7789 178.23 33.4978 178.23 33.2375C178.23 32.9563 178.074 32.8209 177.772 32.8209L177.793 32.8626ZM143.514 32.5606C142.858 33.6227 141.931 34.1538 140.744 34.1538C139.557 34.1538 138.599 33.5706 137.922 32.4148C137.246 31.259 136.912 29.6659 136.912 27.625C136.912 25.7299 137.235 24.2616 137.891 23.2308C138.537 22.1999 139.464 21.6897 140.64 21.6897C140.984 21.6897 141.4 21.7938 141.89 22.0021C141.494 22.5852 141.296 23.1371 141.296 23.6682C141.296 24.5324 141.567 25.1988 142.108 25.6674C142.66 26.1464 143.42 26.3859 144.389 26.3859L144.493 28.1248C144.493 30.0199 144.16 31.4985 143.504 32.5606H143.514Z" fill="#101820"/>
<path d="M192.693 13.8903C192.693 13.7549 192.62 13.5883 192.485 13.4009L191.923 12.672C191.714 12.3909 191.485 12.2555 191.225 12.2555L190.881 12.3596C190.35 12.6407 189.955 12.8178 189.715 12.9011C189.476 12.9844 189.091 13.026 188.58 13.026C188.185 13.026 187.497 12.9427 186.529 12.7657C185.55 12.5887 184.707 12.4429 184.009 12.3179C183.301 12.193 182.53 12.1201 181.687 12.1201C179.417 12.1201 177.657 12.5887 176.408 13.5362C175.169 14.4734 174.544 15.1398 174.544 15.5355C174.544 15.7958 174.638 16.0144 174.825 16.2019L175.908 17.2432C176.231 17.5451 176.491 17.7013 176.678 17.7013C176.887 17.7013 177.178 17.3994 177.564 16.8163C177.949 16.2227 178.48 15.7333 179.178 15.3584C179.875 14.9732 180.677 14.7858 181.583 14.7858V34.2472C181.583 34.8094 181.666 35.1947 181.843 35.4134C182.02 35.632 182.333 35.7466 182.801 35.7466H184.79C185.279 35.7466 185.602 35.6529 185.769 35.4654C185.935 35.278 186.008 34.9344 186.008 34.4242V15.3793C187.029 15.6604 187.935 15.7958 188.726 15.7958C189.611 15.7958 190.486 15.5875 191.371 15.171C192.245 14.7545 192.693 14.338 192.693 13.9215V13.8903Z" fill="#FFE781"/>
<path d="M207.563 17.7852C208.26 17.7852 208.844 17.5562 209.302 17.0876C209.77 16.619 209.999 16.0567 209.999 15.3799C209.999 14.7031 209.77 14.0992 209.302 13.641C208.833 13.1724 208.26 12.9434 207.563 12.9434C206.865 12.9434 206.324 13.1724 205.855 13.641C205.397 14.1096 205.157 14.6823 205.157 15.3799C205.157 16.0776 205.386 16.619 205.855 17.0876C206.324 17.5562 206.886 17.7852 207.563 17.7852Z" fill="#FFE781"/>
<path d="M224.296 24.0427C222.286 32.5083 217.871 31.7482 217.871 31.7482C217.434 31.7482 217.132 31.5815 216.965 31.2587C216.809 30.936 216.726 30.3632 216.726 29.551V15.7125C216.726 13.7654 216.799 12.3909 216.934 11.5995L217.038 10.9019C217.038 10.6936 216.986 10.527 216.861 10.4124C216.747 10.2979 216.601 10.2354 216.445 10.2354C216.122 10.2354 215.716 10.4957 215.247 11.006C214.768 11.5162 214.331 11.9431 213.946 12.2971C213.55 12.6408 213.154 12.9636 212.748 13.2552C212.342 13.5467 212.061 13.7654 211.915 13.9007C211.759 14.0361 211.686 14.2027 211.686 14.3901C211.686 14.64 211.842 14.8587 212.176 15.0149C212.498 15.1815 212.686 15.3168 212.738 15.4314C212.779 15.5459 212.811 15.8583 212.811 16.3686V32.1855C212.811 32.3105 212.821 32.425 212.832 32.5499C212.696 32.5812 212.425 32.7166 211.999 32.9873C211.52 33.2893 211.113 33.4349 210.759 33.4349C210.02 33.4349 209.645 32.8103 209.645 31.5503V24.4072C209.645 24.1781 209.656 23.772 209.687 23.2097C209.708 22.637 209.76 22.1476 209.843 21.7311L210.031 20.5441C210.031 20.0859 209.812 19.8464 209.364 19.8464C209.177 19.8464 209 19.9193 208.843 20.0546C208.677 20.19 208.26 20.6273 207.584 21.3458C206.907 22.0643 206.24 22.6162 205.584 23.0015C204.928 23.3867 204.606 23.7512 204.606 24.0948C204.606 24.3968 204.762 24.605 205.095 24.7196C205.418 24.8341 205.605 24.9591 205.657 25.084C205.709 25.209 205.73 25.5109 205.73 25.9691V32.3417C205.73 32.4666 205.741 32.5707 205.751 32.6853C205.564 32.6853 205.241 32.8206 204.772 33.0706C204.293 33.3309 203.918 33.4558 203.637 33.4558C202.877 33.4558 202.492 32.8311 202.492 31.5815V25.3964C202.492 21.6686 200.867 19.8047 197.619 19.8047C195.671 19.8047 194.047 20.2629 192.756 21.1688C191.465 22.0747 190.819 22.6786 190.819 22.9806C190.819 23.3451 191.006 23.5325 191.381 23.5325C191.548 23.5325 191.933 23.3971 192.548 23.1264C193.162 22.8557 193.672 22.6578 194.068 22.512C194.464 22.3767 195.067 22.3142 195.89 22.3142C196.848 22.3142 197.504 22.5225 197.879 22.9494C198.254 23.3763 198.462 23.7512 198.493 24.0844C198.535 24.4176 198.545 24.8862 198.545 25.4797V26.344C197.431 25.9275 196.369 25.7192 195.359 25.7192C193.516 25.7192 192.016 26.219 190.85 27.2186C189.684 28.2182 189.101 29.5094 189.101 31.0817C189.101 32.5395 189.57 33.7369 190.496 34.6742C191.423 35.6009 192.6 36.0694 194.026 36.0694C195.776 36.0694 197.337 35.3717 198.712 33.9764C199.191 35.3717 200.138 36.0694 201.523 36.0694C202.721 36.0694 203.793 35.6633 204.731 34.8303C205.262 34.3721 205.626 33.9869 205.865 33.6849C206.199 35.1947 207.157 35.9653 208.75 35.9653C209.979 35.9653 210.999 35.5801 211.811 34.7991C212.373 34.2576 212.759 33.8827 212.977 33.6432C213.321 35.1843 214.279 35.9653 215.851 35.9653C225.285 35.9653 224.327 24.0115 224.327 24.0115L224.296 24.0427ZM198.514 29.3845C198.514 30.2904 198.483 30.9255 198.41 31.3004C198.337 31.6752 198.098 32.1647 197.691 32.779C197.285 33.3934 196.65 33.7057 195.775 33.7057C195.047 33.7057 194.463 33.4246 194.005 32.8519C193.547 32.2792 193.318 31.5399 193.318 30.6027C193.318 29.6656 193.547 29.02 194.016 28.5098C194.484 27.9995 195.14 27.7392 195.984 27.7392C196.702 27.7392 197.546 27.9475 198.504 28.364V29.374L198.514 29.3845Z" fill="#FFE781"/>
</g>
<defs>
<clipPath id="clip0_2_1070">
<rect width="228" height="37" fill="white"/>
</clipPath>
</defs>
</svg>
